<svg id="Capa_1" enable-background="new 0 0 490 490" height="512" viewBox="0 0 490 490" width="512" xmlns="http://www.w3.org/2000/svg"><g><circle cx="245" cy="245" fill="#d54980" r="245"/><g><path d="m392.769 169.786v166.497c0 44.392-66.168 80.378-147.769 80.378-33.77 0-64.897-6.178-89.771-16.535-35.263-14.698-57.998-37.824-57.998-63.843v-176.831l57.998 2.021z" fill="#593375"/><path d="m392.769 169.78v166.51c0 14.787-7.343 28.646-20.173 40.548-12.608 11.721-30.522 21.545-51.946 28.485-22.13 7.202-48.012 11.337-75.65 11.337-17.309 0-33.932-1.614-49.364-4.6v-249.18l125.014 4.378 51.946 1.816z" fill="#704f85"/><path d="m489.992 182.079v23.697c.048 6.978-3.501 13.98-10.622 17.743l-209.292 110.504c-7.835 4.144-16.457 6.216-25.078 6.216s-17.243-2.072-25.078-6.216l-209.292-110.505c-7.121-3.763-10.67-10.765-10.622-17.743v-23.697h22.339l197.575-104.312c7.835-4.144 16.457-6.216 25.078-6.216s17.243 2.072 25.078 6.216l197.575 104.313z" fill="#593375"/><path d="m356.362 168.504v220.605c-10.241 6.383-22.291 11.86-35.724 16.218v-238.062z" fill="#8d71b3"/><path d="m489.993 182.079v23.7c.05 6.97-3.5 13.98-10.62 17.74l-101.2 53.43-16 8.45-92.1 48.62c-7.83 4.15-16.45 6.22-25.07 6.22v-268.69c8.62 0 17.24 2.07 25.07 6.22l197.58 104.31z" fill="#8d71b3"/><path d="m479.374 164.452-209.289-110.496c-15.696-8.287-34.473-8.287-50.169 0l-209.29 110.496c-14.168 7.48-14.168 27.773 0 35.253l209.289 110.496c15.696 8.287 34.473 8.287 50.169 0l209.289-110.496c14.169-7.48 14.169-27.772.001-35.253z" fill="#704f85"/><path d="m378.173 245.719v31.23l-16 8.45v-34.95l-117.17-64.39-10.86-5.97c-3.87-2.13-5.28-6.99-3.15-10.86 2.12-3.87 6.99-5.29 10.86-3.16l3.15 1.73 129.03 70.91c2.55 1.4 4.14 4.09 4.14 7.01z" fill="#704f85"/><ellipse cx="245" cy="182.079" fill="#8d71b3" rx="26.197" ry="16.671"/><path d="m377.177 358.269c-4.418 0-8-3.582-8-8v-90.82l-128.03-70.359c-3.872-2.128-5.286-6.992-3.158-10.864s6.991-5.286 10.864-3.158l132.177 72.638c2.558 1.406 4.147 4.093 4.147 7.011v95.552c0 4.418-3.582 8-8 8z" fill="#f6e06e"/><path d="m407.401 425.049c0-16.694-13.533-57.834-30.228-57.834-16.694 0-30.228 41.139-30.228 57.834 0 16.694 13.533 2.622 30.228 2.622 16.694 0 30.228 14.072 30.228-2.622z" fill="#f6e06e"/><path d="m367.175 425.049c0 1.62.04 2.96.12 4.04-11.84 3.1-20.35 9.2-20.35-4.04 0-16.69 13.54-57.83 30.23-57.83-5.52 0-10 41.14-10 57.83z" fill="#dcbe34"/><circle cx="377.177" cy="350.269" fill="#fff" r="21.952"/><path d="m385.175 370.709c-2.48.98-5.18 1.51-8 1.51-12.13 0-21.95-9.83-21.95-21.95s9.82-21.95 21.95-21.95c2.82 0 5.52.53 8 1.51-8.17 3.19-13.95 11.14-13.95 20.44s5.78 17.25 13.95 20.44z" fill="#f1f1f1"/></g></g></svg>